<svg
        xmlns="http://www.w3.org/2000/svg"
        xml:space="preserve"
        x="0"
        y="0"
        viewBox="0 0 452 90"
>
    <path
            fill="#ffffff"
            d="M161.1 29.8v14.1h-6c-5.4 0-7.7 2.4-7.7 8.1v22.7h-15.3V29.8h12.7v3.8c3.1-3.6 7-3.8 12.3-3.8h4zM263 52.1c0 13.1-9.1 22.4-22.1 22.4-4.6.1-9.1-1.5-12.7-4.5v4.5h-12.1V15.9h14.3v16.8c3.1-1.9 6.8-2.9 10.4-2.9 13 0 22.2 9.2 22.2 22.3zm-14.6 0c0-5.2-4.2-9.4-9.4-9.4s-9.4 4.2-9.4 9.4 4.2 9.4 9.4 9.4 9.4-4.2 9.4-9.4zM265.7 54.5V29.7h14.9v24.1c0 4.6 2.5 7.3 6.4 7.3s6.4-2.7 6.4-7.3V29.7h14.9v24.7c0 12.1-8.5 20-21.3 20s-21.3-7.8-21.3-19.9zM354 47.4v27.1h-14.5V49.4c0-4.9-1.8-7.3-5.5-7.3-4.5 0-7.1 3.2-7.1 8.5v23.9h-14.5V29.7h12.2v5.6c3.4-3.7 8.2-5.7 13.3-5.6 9.6 0 16.1 7 16.1 17.7zM442.5 29.7v44.8h-12.4v-4.4c-3.6 2.9-8.1 4.4-12.7 4.4-12.9 0-22-9.4-22-22.5s9.2-22.3 22-22.3c4.7 0 9.2 1.6 12.9 4.5v-4.5h12.2zm-13.7 22.4c.2-5.2-3.9-9.6-9.1-9.7-5.2-.2-9.6 3.9-9.7 9.1v.6c-.2 5.2 3.9 9.6 9.1 9.7 5.2.2 9.6-3.9 9.7-9.1v-.6zM128 29.8v44.8h-12.5v-4.4c-3.6 2.9-8.1 4.4-12.7 4.4-12.9 0-22.1-9.4-22.1-22.5s9.2-22.3 22.1-22.3c4.7 0 9.2 1.6 12.8 4.5v-4.6H128zm-13.8 22.4c.2-5.2-3.9-9.6-9.1-9.7-5.2-.2-9.6 3.9-9.7 9.1v.6c-.2 5.2 3.9 9.6 9.1 9.7 5.2.2 9.6-3.9 9.7-9.1v-.6zM211.1 29.8v44.8h-12.4v-4.4c-3.6 2.9-8.1 4.4-12.7 4.4-12.9 0-22-9.4-22-22.5s9.2-22.3 22-22.3c4.7 0 9.2 1.6 12.9 4.5v-4.6h12.2zm-13.7 22.4c.2-5.2-3.9-9.6-9.1-9.7-5.2-.2-9.6 3.9-9.7 9.1v.6c-.2 5.2 3.9 9.6 9.1 9.7 5.2.2 9.6-3.9 9.7-9.1v-.6zM386.2 61.1c-3.3 0-5.2-1.9-5.2-5.2V41.7h10.9V29.8h-11.3V16.6h-15.1v13.1h-8.2v11.9h8.2v16.9c0 10 6 16 16 16h10.6V61.1h-5.9zM77.4 47.3v27.2h-15V50.9c0-4.5-1.7-6.7-4.8-6.7-4.1 0-6.2 2.8-6.2 8.3v22.2H36.8V50.9c0-4.4-1.7-6.7-4.8-6.7-4.1 0-6.3 2.9-6.3 8.3v22.2h-15V29.8h12.7v6c3.2-3.7 7.8-5.9 12.7-6 5-.1 9.7 2.3 12.5 6.4 3.2-4.1 8.2-6.4 13.4-6.4 9.3.1 15.4 7.3 15.4 17.5z"
    />
</svg>